<?xml version="1.0" encoding="utf-8"?>
<?xml-stylesheet type="text/xsl" href="rss1.xsl"?>
<rss version="2.0" xmlns:atom="http://www.w3.org/2005/Atom" xmlns:content="http://purl.org/rss/1.0/modules/content/" xmlns:dc="http://purl.org/dc/elements/1.1/" xmlns:media="http://search.yahoo.com/mrss/">
<channel>
 <title>Getty</title>
 <link>http://www.gettyimg.com/</link>
 <atom:link href="http://www.gettyimg.com/" rel="self" type="application/rss+xml" />

 
                <item>
                <title><![CDATA[【Apple Music】WEB-RiP - Linkin Park - Faint [Apple Music WEB-DL 1080p HD]]]></title>
                <link><![CDATA[https://sharemania.us/threads/linkin-park-faint-apple-music-web-dl-1080p-hd.243434/]]></link>
                <description><![CDATA[<article>
<blockquote class="messageText SelectQuoteContainer ugc baseHtml">
<span style="font-size: 22px"><b>Linkin Park - Faint [Apple Music WEB-DL 1080p HD]</b></span><br>
<br>
<img src="https://imgur.com/Fry4qlN.jpg" class="bbCodeImage LbImage" alt="[​IMG]" data-url="https://imgur.com/Fry4qlN.jpg" style=""><br>
<br>
<div class="bbCodeBlock bbCodeCode">
<div class="type">Code:</div>
<pre>General
Format                         : MPEG-4
Codec ID                       : M4V  (isom/iso4/M4V /mp42)
File size                      : 202 MiB
Duration                       : 2 min 48 s
Overall bit rate mode          : Variable
Overall bit rate               : 10.1 Mb/s
Movie name                     : Faint
Performer                      : LINKIN PARK
Genre                          : Alternative
ContentType                    : Music Video
Recorded date                  : 2009
Encoded date                   : UTC 2024-02-14 05:54:58
Tagged date                    : UTC 2024-02-14 05:54:58
Copyright                      : ℗ © 2003 Warner Records Inc.
Cover                          : Yes
Rating                         : None
AlbumTitleID                   : 148662
AppleStoreCatalogID            : 1677888865
GenreID                        : 1620

Video
ID                             : 2
Format                         : AVC
Format/Info                    : Advanced Video Codec
Format profile                 : High@L4
Format settings                : CABAC / 4 Ref Frames
Format settings, CABAC         : Yes
Format settings, Reference fra : 4 frames
Codec ID                       : avc1
Codec ID/Info                  : Advanced Video Coding
Duration                       : 2 min 48 s
Bit rate                       : 9 798 kb/s
Maximum bit rate               : 20.6 Mb/s
Width                          : 1 920 pixels
Height                         : 1 080 pixels
Display aspect ratio           : 16:9
Frame rate mode                : Constant
Frame rate                     : 23.976 (24000/1001) FPS
Color space                    : YUV
Chroma subsampling             : 4:2:0
Bit depth                      : 8 bits
Scan type                      : Progressive
Bits/(Pixel*Frame)             : 0.197
Stream size                    : 196 MiB (97%)
Title                          : Core Media Video
Encoded date                   : UTC 2024-02-14 05:55:02
Tagged date                    : UTC 2024-04-30 10:38:41
Color range                    : Limited
Color primaries                : BT.709
Transfer characteristics       : BT.709
Matrix coefficients            : BT.709
Codec configuration box        : avcC

Audio
ID                             : 1
Format                         : AAC LC
Format/Info                    : Advanced Audio Codec Low Complexity
Codec ID                       : mp4a-40-2
Duration                       : 2 min 48 s
Duration_LastFrame             : -1 ms
Bit rate mode                  : Variable
Bit rate                       : 265 kb/s
Maximum bit rate               : 324 kb/s
Channel(s)                     : 2 channels
Channel layout                 : L R
Sampling rate                  : 48.0 kHz
Frame rate                     : 46.875 FPS (1024 SPF)
Compression mode               : Lossy
Stream size                    : 5.21 MiB (3%)
Title                          : Core Media Audio
Encoded date                   : UTC 2024-02-14 05:54:58
Tagged date                    : UTC 2024-04-30 10:38:41
</pre>
</div>
<div class="bbCodeBlock bbCodeVfcHH HiddenContent">
<div class="attribution type">Hidden Content:</div>
<blockquote>You must reply before you can see the hidden data contained here.</blockquote>
</div>
<div class="messageTextEndMarker">&nbsp;</div>
</blockquote>
</article>]]></description>
                <author><![CDATA[Ron001]]></author>
                </item>

                
                <item>
                <title><![CDATA[【Apple Music】WEB-RiP - Linkin Park - Papercut [Apple Music WEB-DL 1080p HD]]]></title>
                <link><![CDATA[https://sharemania.us/threads/linkin-park-papercut-apple-music-web-dl-1080p-hd.243433/]]></link>
                <description><![CDATA[<article>
<blockquote class="messageText SelectQuoteContainer ugc baseHtml">
<span style="font-size: 22px"><b>Linkin Park - Papercut [Apple Music WEB-DL 1080p HD]</b></span><br>
<br>
<img src="https://imgur.com/lTvOZIk.jpg" class="bbCodeImage LbImage" alt="[​IMG]" data-url="https://imgur.com/lTvOZIk.jpg" style=""><br>
<br>
<div class="bbCodeBlock bbCodeCode">
<div class="type">Code:</div>
<pre>General
Format                         : MPEG-4
Codec ID                       : M4V  (isom/iso4/M4V /mp42)
File size                      : 242 MiB
Duration                       : 3 min 14 s
Overall bit rate mode          : Variable
Overall bit rate               : 10.4 Mb/s
Movie name                     : Papercut
Performer                      : LINKIN PARK
Genre                          : Alternative
ContentType                    : Music Video
Recorded date                  : UTC 2001-09-25 07:00:00
Encoded date                   : UTC 2024-02-29 12:12:13
Tagged date                    : UTC 2024-02-29 12:12:13
Copyright                      : ℗ 2020 Warner Records Inc.
Cover                          : Yes
Rating                         : None
GenreID                        : 1620
AlbumTitleID                   : 148662
AppleStoreCatalogID            : 1537687656

Video
ID                             : 2
Format                         : AVC
Format/Info                    : Advanced Video Codec
Format profile                 : High@L4
Format settings                : CABAC / 4 Ref Frames
Format settings, CABAC         : Yes
Format settings, Reference fra : 4 frames
Codec ID                       : avc1
Codec ID/Info                  : Advanced Video Coding
Duration                       : 3 min 14 s
Bit rate                       : 10.1 Mb/s
Maximum bit rate               : 24.2 Mb/s
Width                          : 1 920 pixels
Height                         : 1 080 pixels
Display aspect ratio           : 16:9
Frame rate mode                : Constant
Frame rate                     : 23.976 (24000/1001) FPS
Color space                    : YUV
Chroma subsampling             : 4:2:0
Bit depth                      : 8 bits
Scan type                      : Progressive
Bits/(Pixel*Frame)             : 0.204
Stream size                    : 235 MiB (97%)
Title                          : Core Media Video
Encoded date                   : UTC 2024-02-29 12:12:20
Tagged date                    : UTC 2024-04-30 10:29:16
Color range                    : Limited
Color primaries                : BT.709
Transfer characteristics       : BT.709
Matrix coefficients            : BT.709
Codec configuration box        : avcC

Audio
ID                             : 1
Format                         : AAC LC
Format/Info                    : Advanced Audio Codec Low Complexity
Codec ID                       : mp4a-40-2
Duration                       : 3 min 14 s
Duration_LastFrame             : -7 ms
Bit rate mode                  : Variable
Bit rate                       : 279 kb/s
Maximum bit rate               : 338 kb/s
Channel(s)                     : 2 channels
Channel layout                 : L R
Sampling rate                  : 48.0 kHz
Frame rate                     : 46.875 FPS (1024 SPF)
Compression mode               : Lossy
Stream size                    : 6.47 MiB (3%)
Title                          : Core Media Audio
Encoded date                   : UTC 2024-02-29 12:12:13
Tagged date                    : UTC 2024-04-30 10:29:16
</pre>
</div>
<div class="bbCodeBlock bbCodeVfcHH HiddenContent">
<div class="attribution type">Hidden Content:</div>
<blockquote>You must reply before you can see the hidden data contained here.</blockquote>
</div>
<div class="messageTextEndMarker">&nbsp;</div>
</blockquote>
</article>]]></description>
                <author><![CDATA[Ron001]]></author>
                </item>

                
                <item>
                <title><![CDATA[【Singles (lossless)】FLAC - Carlos Rivera - Guerra (2018) 16bits/44.1khz]]></title>
                <link><![CDATA[https://sharemania.us/threads/carlos-rivera-guerra-2018-16bits-44-1khz.243432/]]></link>
                <description><![CDATA[<article>
<blockquote class="messageText SelectQuoteContainer ugc baseHtml">
Please Enjoy!!! <img src="styles/default/xenforo/smilies/victory-48.png" class="mceSmilie" alt=":victory:" title="Victory    :victory:"><br>
<br>
<br>
<div class="bbCodeBlock bbCodeVfcHH HiddenContent">
<div class="attribution type">Hidden Content:</div>
<blockquote>You must reply before you can see the hidden data contained here.</blockquote>
</div>
<div class="messageTextEndMarker">&nbsp;</div>
</blockquote>
</article>]]></description>
                <author><![CDATA[Edbeby]]></author>
                </item>

                </channel></rss>